<?xml version="1.0" encoding="iso-8859-1"?>
<!-- Generator: Adobe Illustrator 19.0.0, SVG Export Plug-In . SVG Version: 6.00 Build 0)  -->
<svg version="1.1" id="Layer_1" xmlns="http://www.w3.org/2000/svg" xmlns:xlink="http://www.w3.org/1999/xlink" x="0px" y="0px"
	 viewBox="0 0 512 512" style="enable-background:new 0 0 512 512;" xml:space="preserve">
<g>
	<g>
		<path d="M508.74,95.69L389.274,1.823c-2.56-2.014-6.05-2.389-9.003-0.964c-2.935,1.425-4.804,4.403-4.804,7.671v51.635
			c-45.602,4.634-85.598,45.645-119.467,88.158c-33.869-42.513-73.865-83.524-119.467-88.158V8.531c0-3.268-1.869-6.246-4.796-7.671
			c-2.953-1.425-6.434-1.05-9.011,0.964L3.26,95.69C1.203,97.303,0,99.777,0,102.397c0,2.62,1.203,5.094,3.26,6.707l119.467,93.867
			c2.577,2.022,6.059,2.406,9.011,0.964c2.927-1.425,4.796-4.403,4.796-7.672v-50.475c41.566,7.1,76.8,64.41,76.8,110.208v247.467
			c0,4.71,3.814,8.533,8.533,8.533h68.267c4.719,0,8.533-3.823,8.533-8.533V255.997c0-45.798,35.234-103.108,76.8-110.208v50.475
			c0,3.268,1.869,6.246,4.804,7.672c2.953,1.442,6.443,1.058,9.003-0.964l119.467-93.867c2.057-1.613,3.26-4.087,3.26-6.707
			C512,99.777,510.797,97.303,508.74,95.69z"/>
	</g>
</g>
<g>
</g>
<g>
</g>
<g>
</g>
<g>
</g>
<g>
</g>
<g>
</g>
<g>
</g>
<g>
</g>
<g>
</g>
<g>
</g>
<g>
</g>
<g>
</g>
<g>
</g>
<g>
</g>
<g>
</g>
</svg>
